<!DOCTYPE svg PUBLIC "-//W3C//DTD SVG 1.1//EN" "http://www.w3.org/Graphics/SVG/1.1/DTD/svg11.dtd">
<!-- Uploaded to: SVG Repo, www.svgrepo.com, Transformed by: SVG Repo Mixer Tools -->
<svg fill="#000000" version="1.1" id="Capa_1" xmlns="http://www.w3.org/2000/svg" xmlns:xlink="http://www.w3.org/1999/xlink" width="800px" height="800px" viewBox="0 0 485.856 485.856" xml:space="preserve">
<g id="SVGRepo_bgCarrier" stroke-width="0"/>
<g id="SVGRepo_tracerCarrier" stroke-linecap="round" stroke-linejoin="round"/>
<g id="SVGRepo_iconCarrier"> <g> <path d="M485.741,160.903l-4.204-30.777c-0.519-3.787-2.74-7.131-6.031-9.072l-30.9-18.237l-23.178-23.098L409.437,36.41 c-1.168-4.218-4.459-7.519-8.673-8.699l-9.754-2.734c-4.653-1.305-9.639,0.188-12.808,3.835L293.2,126.587l-32.549,21.002 l-32.25,4.56l-181.126-9.152L36.755,93.088c-1.32-6.268-7.153-10.513-13.535-9.854c-6.369,0.668-11.204,6.042-11.196,12.446 l0.008,6.713c0,0.406,0.021,0.812,0.061,1.218l3.369,34.012c0.105,1.06,0.345,2.101,0.714,3.1l17.597,47.643l-16.177,46.153 c-0.503,1.434-0.74,2.947-0.7,4.466l1.593,60.07l-11.4,39.031L0.864,359.99c-0.308,1.085-0.468,2.207-0.476,3.335L0,422.233 c-0.012,1.757,0.348,3.497,1.054,5.106l11.635,26.506c1.993,4.54,6.481,7.474,11.44,7.476l49.217,0.023c0.002,0,0.004,0,0.006,0 c3.185,0,6.249-1.216,8.568-3.398l8.08-7.605l12.355,5.506c1.558,0.695,3.241,1.063,4.947,1.082l31.699,0.357 c0.047,0.001,0.094,0.001,0.142,0.001c4.716,0,9.037-2.657,11.163-6.877l5.301-10.523c2.353-4.67,1.549-10.312-2.014-14.14 l-17.021-18.286l-1.807-43.204l18.571-51.266l10.057-16.488l11.631-1.562l83.736,18.16l1.851,6.863l-14.85,93.694 c-0.46,2.902,0.117,5.877,1.632,8.396l14.336,23.854c2.111,3.514,5.812,5.769,9.903,6.033l29.26,1.9 c4.883,0.312,9.499-2.242,11.817-6.549l4.045-7.515l24.9,14.96c2.051,1.231,4.392,1.862,6.804,1.779l21.914-0.641 c3.289-0.097,6.409-1.486,8.682-3.868l10.248-10.747c3.989-4.186,4.589-10.559,1.45-15.413l-8.47-13.1 c-1.52-2.352-3.783-4.124-6.432-5.034l-3.704-1.274l-2.933-4.249l21.625-214.707l8.354-5.654l6.604-0.281l27.837,8.696 c2.87,0.898,5.972,0.729,8.73-0.476l35.992-15.722C483.484,171.812,486.497,166.443,485.741,160.903z M436.638,164.993 l-25.464-7.956c-1.378-0.43-2.825-0.618-4.26-0.557l-12.322,0.525c-2.314,0.099-4.557,0.838-6.475,2.137l-16.134,10.92 c-3.068,2.078-5.059,5.411-5.431,9.099L343.881,404.26c-0.297,2.951,0.465,5.912,2.148,8.353l7.878,11.414 c1.517,2.198,3.696,3.854,6.222,4.722l3.507,1.206l0.706,1.093l-12.951,0.379l-26.476-15.906l5.732-90.358 c0.438-6.869-4.763-12.799-11.63-13.264c-6.872-0.477-12.817,4.708-13.312,11.574l-5.98,83.061 c-0.017,0.233-0.027,0.468-0.03,0.701l-0.187,11.844l-5.007,9.301l-14.718-0.956l-8.619-14.342l14.556-91.836 c0.274-1.736,0.181-3.514-0.277-5.212l-4.527-16.787c-1.217-4.514-4.851-7.971-9.419-8.961l-93.313-20.237 c-1.415-0.309-2.875-0.365-4.312-0.174l-19.709,2.646c-3.736,0.501-7.047,2.662-9.01,5.88l-13.813,22.648 c-0.435,0.713-0.797,1.467-1.081,2.251L110.42,358.06c-0.554,1.53-0.804,3.154-0.736,4.78l2.103,50.28 c0.125,2.978,1.309,5.812,3.339,7.993l10.256,11.019l-15.212-0.171L83.46,420.058l-3.506-34.741l13.253-35.597 c2.105-5.653-0.128-12.003-5.307-15.096l-1.521-0.907c-5.77-3.443-13.229-1.711-16.889,3.923l-3.982,6.129 c-0.602,0.926-1.078,1.928-1.417,2.979l-13.408,41.642c-0.604,1.878-0.756,3.872-0.442,5.82l4.75,29.465 c0.854,5.591,5.949,11.349,7.007,12.667l-29.697-0.014l-6.984-16.595l0.059-54.543l5.735-20.183l11.924-40.822 c0.363-1.245,0.531-2.539,0.497-3.836l-1.584-59.73l16.813-47.97c0.654-1.867,0.856-3.862,0.59-5.822l-0.109-0.803 c-0.123-0.902-0.345-1.789-0.66-2.644l-4.593-12.437l19.375,5.576c1.12,0.322,2.279,0.486,3.445,0.487l152.455,0.143 c0.004,0,0.008,0,0.012,0c0.585,0,1.17-0.041,1.75-0.123l35.845-5.068c1.792-0.253,3.508-0.893,5.027-1.873l36.349-23.453 c0.988-0.639,1.883-1.413,2.655-2.303l77.721-89.398l9.593,34.646c0.578,2.087,1.688,3.989,3.224,5.52l26.633,26.541 c0.74,0.736,1.569,1.38,2.471,1.91l27.044,15.961l2.105,15.418L436.638,164.993z"/> </g> </g>
</svg>