<!DOCTYPE svg PUBLIC "-//W3C//DTD SVG 1.1//EN" "http://www.w3.org/Graphics/SVG/1.1/DTD/svg11.dtd">
<!-- Uploaded to: SVG Repo, www.svgrepo.com, Transformed by: SVG Repo Mixer Tools -->
<svg fill="#000000" version="1.1" id="Capa_1" xmlns="http://www.w3.org/2000/svg" xmlns:xlink="http://www.w3.org/1999/xlink" width="800px" height="800px" viewBox="0 0 90.961 90.96" xml:space="preserve">
<g id="SVGRepo_bgCarrier" stroke-width="0"/>
<g id="SVGRepo_tracerCarrier" stroke-linecap="round" stroke-linejoin="round"/>
<g id="SVGRepo_iconCarrier"> <g> <g> <path d="M24.773,36.164c2.199,0,6.625-1.232,7.639-5.895c0.117-0.54-0.226-1.072-0.766-1.189c-0.539-0.12-1.072,0.225-1.189,0.765 c-0.921,4.239-5.493,4.318-5.684,4.319c-0.553,0-1,0.448-1,1C23.773,35.714,24.219,36.164,24.773,36.164z"/> <path d="M24.19,44.997l3.269,5.944l-5.556,16.043c-0.12,0.35-0.039,0.734,0.211,1.005l2.913,3.155 c0.008,0.247,0.097,0.489,0.281,0.673l4.433,4.435c0.195,0.192,0.451,0.293,0.707,0.293c0.249,0,0.499-0.096,0.692-0.278 c0.394-0.378,0.412-1,0.042-1.398l-1.962-2.125l3.257,0.619c0.068,0.016,0.133,0.018,0.201,0.02 c0.203,0.043,0.408-0.063,0.569-0.172v2.418l-1.27,2.537l-6.194,1.474c-0.476,0.112-0.799,0.552-0.767,1.039 c0.033,0.487,0.413,0.88,0.898,0.929c0.175,0.021,4.305,0.429,7.229,0.429c2.165,0,3.322-0.173,3.634-1.105 c0.216-0.646,1.411-3.115,2.162-4.617c0.073-0.146,0.109-0.311,0.105-0.475l-0.308-11.676l4.864-6.297h7.741 c0.238,0,0.472-0.085,0.649-0.238l11.646-9.981V57.5c0,0.473,0.33,0.881,0.795,0.979l5.785,1.218l9.719,7.656l-2.812,8.706 l-4.312,1.728c-0.443,0.178-0.699,0.646-0.609,1.115c0.092,0.473,0.502,0.812,0.98,0.812h7.282c0.363,0,0.697-0.196,0.873-0.516 l9.498-17.097c0.147-0.268,0.166-0.583,0.053-0.864c-0.114-0.279-0.352-0.492-0.643-0.581l-7.714-2.284l2.091-13.706 c0.021-0.125,0.016-0.257-0.017-0.382l-3.166-13.297c-0.09-0.37-0.379-0.658-0.748-0.743l-8.229-1.9 c-0.078-0.018-0.164-0.022-0.239-0.025l-20.478,0.315l-19.37-3.749l-12.806-7.204l-3.812-8.177 c-0.198-0.425-0.662-0.656-1.123-0.554c-0.457,0.101-0.783,0.507-0.783,0.976v8.345l-6.414,4.811l-6.884,3.442 c-0.47,0.235-0.678,0.794-0.476,1.279l1.583,3.799c0.155,0.373,0.52,0.615,0.923,0.615h16.12L24.19,44.997z M33.242,71.545 l-5.383-5.101l4.066-8.712l2.317-2.605l-0.969,4.035c-0.019,0.075-0.027,0.153-0.027,0.231v12.152 C33.245,71.547,33.243,71.547,33.242,71.545z M2.285,27.896l6.13-3.065c0.054-0.027,0.104-0.059,0.152-0.095l6.886-5.165 c0.252-0.188,0.4-0.485,0.4-0.8v-4.334l2.042,4.379c0.088,0.189,0.233,0.347,0.416,0.449l13.228,7.441 c0.094,0.053,0.195,0.09,0.3,0.11l19.631,3.799c0.068,0.014,0.13,0.024,0.205,0.018l20.457-0.315l7.511,1.733l2.979,12.504 l-2.189,14.374c-0.074,0.493,0.227,0.967,0.704,1.108l7.354,2.178l-8.607,15.492h-1.508c0.244-0.119,0.432-0.332,0.518-0.594 l3.164-9.814c0.129-0.396-0.004-0.834-0.332-1.092l-10.445-8.229c-0.121-0.097-0.266-0.161-0.414-0.191l-5.223-1.102v-11.22 c0-0.393-0.229-0.745-0.582-0.909c-0.354-0.162-0.771-0.104-1.066,0.149L50.972,55.863h-7.861c-0.31,0-0.602,0.146-0.791,0.391 l-5.382,6.965c-0.141,0.184-0.215,0.408-0.209,0.64l0.311,11.78c-0.391,0.785-1.556,3.146-2.019,4.285 c-0.252,0.047-0.79,0.106-1.877,0.106c-0.123,0-0.248,0-0.375-0.002L32.895,80c0.288-0.066,0.531-0.263,0.663-0.524l1.583-3.166 c0.069-0.14,0.105-0.292,0.105-0.447V59.514l1.872-7.801c0.106-0.445-0.104-0.907-0.51-1.12c-0.406-0.212-0.906-0.121-1.21,0.223 l-5.065,5.699c-0.064,0.071-0.118,0.153-0.159,0.241l-4.433,9.498c-0.182,0.391-0.094,0.854,0.219,1.146l3.538,3.354l-2.56-0.485 l-2.95-3.196l5.504-15.896c0.092-0.268,0.067-0.563-0.069-0.811l-3.439-6.245l-5.699-13.297c-0.157-0.368-0.519-0.606-0.919-0.606 H3.254L2.285,27.896z"/> </g> </g> </g>
</svg>