<!DOCTYPE svg PUBLIC "-//W3C//DTD SVG 1.1//EN" "http://www.w3.org/Graphics/SVG/1.1/DTD/svg11.dtd">
<!-- Uploaded to: SVG Repo, www.svgrepo.com, Transformed by: SVG Repo Mixer Tools -->
<svg fill="#000000" height="800px" width="800px" version="1.1" id="Layer_1" xmlns="http://www.w3.org/2000/svg" xmlns:xlink="http://www.w3.org/1999/xlink" viewBox="0 0 512 512" xml:space="preserve">
<g id="SVGRepo_bgCarrier" stroke-width="0"/>
<g id="SVGRepo_tracerCarrier" stroke-linecap="round" stroke-linejoin="round"/>
<g id="SVGRepo_iconCarrier"> <g> <g> <path d="M485.195,59.98h-87.522V10.627C397.674,4.758,392.915,0,387.046,0c-26.949,0-48.873,21.924-48.873,48.873V175.3v27.74 l-31.777,4.119c-5.822,0.755-9.928,6.085-9.173,11.906c0.694,5.357,5.265,9.263,10.525,9.263c0.456,0,0.916-0.03,1.379-0.089 l40.358-5.232h35.658v38.447c0,30.821-25.076,55.896-55.897,55.896h-1.036c-5.868,0-10.627,4.758-10.627,10.627v134.867 c0,5.869,4.759,10.627,10.627,10.627h8.725c11.624,0,21.612,7.146,25.799,17.275H297.32v-162.77v-29.445 c0-5.869-4.759-10.627-10.627-10.627c-5.868,0-10.627,4.758-10.627,10.627v18.818H174.11v-18.818 c0-5.869-4.759-10.627-10.627-10.627c-5.868,0-10.627,4.758-10.627,10.627v29.445v25.814c0,20.196-16.431,36.626-36.627,36.626 c-5.868,0-10.627,4.758-10.627,10.627v61.802c0,5.869,4.759,10.627,10.627,10.627h8.725c11.624,0,21.612,7.146,25.799,17.275 H85.341V338.604h16.527c5.868,0,10.627-4.758,10.627-10.627v-46.523c0-5.869-4.759-10.627-10.627-10.627h-41.8 c-9.842,0-18.237-6.314-21.347-15.105h57.694c0.457,0,0.913-0.03,1.366-0.088l147.959-19.18c5.822-0.755,9.928-6.085,9.173-11.906 s-6.094-9.928-11.905-9.172L95.73,234.467H26.806c-5.868,0-10.627,4.758-10.627,10.627v3.097c0,24.2,19.688,43.888,43.89,43.888 h31.173v25.268H74.713c-5.868,0-10.627,4.758-10.627,10.627v173.398c0,5.869,4.759,10.627,10.627,10.627h88.771 c5.868,0,10.627-4.758,10.627-10.627c0-26.468-21.027-48.117-47.254-49.12v-41.561c26.857-5.004,47.254-28.616,47.254-56.903 v-15.186h101.956v162.77c0,5.869,4.759,10.627,10.627,10.627h88.771c5.868,0,10.627-4.758,10.627-10.627 c0-26.468-21.027-48.117-47.254-49.12V338.009c38.031-4.738,67.56-37.264,67.56-76.558v-49.075v-37.078v-30.083h14.814 c41.14,0,74.61-33.469,74.61-74.61C495.823,64.738,491.065,59.98,485.195,59.98z M385.143,201.751h-25.716v-15.824h25.716V201.751 z M421.213,123.963h-25.442c-5.868,0-10.627,4.758-10.627,10.627v30.083h-25.716v-115.8c0-11.466,7.021-21.321,16.991-25.493 v47.228c0,5.869,4.759,10.627,10.627,10.627h17.727v10.639c0,5.868,4.759,10.627,10.627,10.627 c5.868,0,10.627-4.759,10.627-10.627V81.235h47.478C468.565,105.581,446.996,123.963,421.213,123.963z"/> </g> </g> <g> <g> <path d="M291.4,219.82c-0.755-5.822-6.087-9.926-11.905-9.173l-4.49,0.582c-5.821,0.753-9.928,6.084-9.173,11.905 c0.694,5.357,5.264,9.263,10.525,9.263c0.456,0,0.915-0.03,1.379-0.089l4.49-0.582C288.047,230.971,292.154,225.64,291.4,219.82z"/> </g> </g> </g>
</svg>